<?xml version="1.0" standalone="no"?><!DOCTYPE svg PUBLIC "-//W3C//DTD SVG 1.1//EN" "http://www.w3.org/Graphics/SVG/1.1/DTD/svg11.dtd"><svg t="1667551439898" class="icon" viewBox="0 0 1024 1024" version="1.1" xmlns="http://www.w3.org/2000/svg" p-id="4172" xmlns:xlink="http://www.w3.org/1999/xlink" width="128" height="128"><path d="M513.024 25.429c-267.742 0-485.547 217.839-485.547 485.581s217.839 485.513 485.547 485.513c70.827 0 139.503-15.155 204.083-45.124l3.618-1.707v-0.034c10.274-4.847 16.896-15.258 16.896-26.556 0-16.179-13.175-29.321-29.321-29.321-5.461 0-15.838 2.97-17.886 3.857l-7.748 2.014v0.102c-34.133 25.19-111.514 37.956-172.851 37.956C274.5 937.71 84.65 746.29 84.65 510.975S276.923 84.274 512.238 84.274s427.179 191.454 427.179 426.769c0 70.212-17.203 139.605-50.176 201.182-47.855-25.532-118.511-64.717-181.214-99.43-33.109-18.33-63.147-34.987-85.06-46.967 24.951-36.83 39.322-62.43 55.774-91.75 7.475-13.346 15.326-27.307 24.678-43.247 5.769-9.865 5.154-28.57-1.775-37.478-6.963-8.909-20.309-17.886-26.795-17.886H546.132v-12.22l192.956-0.068c8.602-1.331 24.644-8.636 24.644-29.662 0-20.002-14.609-32.017-25.327-32.017H546.132v-60.075c0-8.192-12.186-23.689-33.587-23.689-21.06 0-34.679 15.155-34.679 24.303v59.494H296.243c-8.124 0-23.893 11.639-23.893 33.143 0 20.924 16.111 29.628 25.259 29.628l179.746-1.331 0.512 12.902-139.162 0.341c-8.431 0-24.337 11.298-24.337 32.768 0 21.06 15.497 34.748 24.849 34.748h275.046l-1.604 6.588c-16.043 32.188-30.037 61.952-48.367 86.426-18.773-7.987-76.22-29.047-143.428-40.448-63.966-10.001-120.559 4.506-154.453 38.605-22.323 22.46-33.997 52.224-33.758 85.641 0.273 36.625 12.902 122.948 124.075 131.516 94.686 10.718 171.383-33.143 227.362-130.423 60.655 26.863 201.626 109.978 270.643 150.665l14.985 8.841c0.137 0.068 13.38 7.27 22.221 7.27 14.302 0 24.883-6.758 33.246-21.094 48.026-76.356 73.421-165.103 73.421-256.649-0.034-267.571-217.839-485.239-485.581-485.239z m18.5 564.19c-46.592 73.25-92.262 104.619-151.484 104.619-5.427 0-10.923-0.273-16.35-0.717-53.18-5.564-75.537-43.145-73.83-75.708C291.635 583.577 319.385 549 377.378 549c10.581 0 21.914 1.161 33.792 3.55 47.889 8.738 83.422 19.661 120.354 37.069z" p-id="4173" fill="#ffffff"></path></svg>